<svg id="visual" viewBox="0 0 960 300" width="960" height="300" xmlns="http://www.w3.org/2000/svg" xmlns:xlink="http://www.w3.org/1999/xlink" version="1.1"><rect x="0" y="0" width="960" height="300" fill="#19181A"></rect><g transform="translate(460.6709251198565 134.75427543716322)"><path d="M86.4 -91.8C112.8 -80.8 135.7 -54.4 144.7 -22.7C153.6 9 148.7 46 128.4 67.6C108.2 89.2 72.5 95.3 37.9 110.9C3.2 126.4 -30.4 151.3 -56.2 145.7C-82 140.1 -99.9 104.1 -106.6 71.6C-113.3 39.2 -108.9 10.4 -108.6 -24C-108.4 -58.5 -112.4 -98.6 -95 -111.1C-77.6 -123.7 -38.8 -108.7 -4.4 -103.5C30 -98.3 60 -102.8 86.4 -91.8" fill="#479761"></path></g></svg>