<svg id="visual" viewBox="0 0 960 300" width="960" height="300" xmlns="http://www.w3.org/2000/svg" xmlns:xlink="http://www.w3.org/1999/xlink" version="1.1"><rect x="0" y="0" width="960" height="300" fill="#19181A"></rect><g transform="translate(464.6145950948073 131.76272615945192)"><path d="M71 -72.5C101.7 -58.7 143.2 -45.6 151.6 -23C160.1 -0.4 135.5 31.8 112.4 58.4C89.3 85 67.7 105.9 39.1 123.1C10.5 140.3 -25.2 153.8 -50.5 142.8C-75.8 131.8 -90.7 96.4 -102.9 64.6C-115.1 32.8 -124.5 4.6 -122.2 -23.8C-119.9 -52.3 -105.9 -80.9 -83.6 -96.1C-61.3 -111.4 -30.6 -113.2 -5.3 -106.9C20.1 -100.6 40.2 -86.2 71 -72.5" fill="#479761"></path></g></svg>