<svg id="visual" viewBox="0 0 960 300" width="960" height="300" xmlns="http://www.w3.org/2000/svg" xmlns:xlink="http://www.w3.org/1999/xlink" version="1.1"><rect x="0" y="0" width="960" height="300" fill="#19181A"></rect><path d="M0 222L22.8 218.2C45.7 214.3 91.3 206.7 137 205.2C182.7 203.7 228.3 208.3 274 209.7C319.7 211 365.3 209 411.2 206.5C457 204 503 201 548.8 198.5C594.7 196 640.3 194 686 194.3C731.7 194.7 777.3 197.3 823 197.5C868.7 197.7 914.3 195.3 937.2 194.2L960 193L960 301L937.2 301C914.3 301 868.7 301 823 301C777.3 301 731.7 301 686 301C640.3 301 594.7 301 548.8 301C503 301 457 301 411.2 301C365.3 301 319.7 301 274 301C228.3 301 182.7 301 137 301C91.3 301 45.7 301 22.8 301L0 301Z" fill="#19181a"></path><path d="M0 221L22.8 217.3C45.7 213.7 91.3 206.3 137 205.3C182.7 204.3 228.3 209.7 274 214.7C319.7 219.7 365.3 224.3 411.2 227.2C457 230 503 231 548.8 230.5C594.7 230 640.3 228 686 223.2C731.7 218.3 777.3 210.7 823 208.8C868.7 207 914.3 211 937.2 213L960 215L960 301L937.2 301C914.3 301 868.7 301 823 301C777.3 301 731.7 301 686 301C640.3 301 594.7 301 548.8 301C503 301 457 301 411.2 301C365.3 301 319.7 301 274 301C228.3 301 182.7 301 137 301C91.3 301 45.7 301 22.8 301L0 301Z" fill="#352937"></path><path d="M0 230L22.8 229.8C45.7 229.7 91.3 229.3 137 229C182.7 228.7 228.3 228.3 274 228C319.7 227.7 365.3 227.3 411.2 227.3C457 227.3 503 227.7 548.8 226.3C594.7 225 640.3 222 686 224.7C731.7 227.3 777.3 235.7 823 237.3C868.7 239 914.3 234 937.2 231.5L960 229L960 301L937.2 301C914.3 301 868.7 301 823 301C777.3 301 731.7 301 686 301C640.3 301 594.7 301 548.8 301C503 301 457 301 411.2 301C365.3 301 319.7 301 274 301C228.3 301 182.7 301 137 301C91.3 301 45.7 301 22.8 301L0 301Z" fill="#583852"></path><path d="M0 250L22.8 249C45.7 248 91.3 246 137 248.2C182.7 250.3 228.3 256.7 274 258.2C319.7 259.7 365.3 256.3 411.2 256C457 255.7 503 258.3 548.8 256.5C594.7 254.7 640.3 248.3 686 245C731.7 241.7 777.3 241.3 823 242.2C868.7 243 914.3 245 937.2 246L960 247L960 301L937.2 301C914.3 301 868.7 301 823 301C777.3 301 731.7 301 686 301C640.3 301 594.7 301 548.8 301C503 301 457 301 411.2 301C365.3 301 319.7 301 274 301C228.3 301 182.7 301 137 301C91.3 301 45.7 301 22.8 301L0 301Z" fill="#814668"></path><path d="M0 267L22.8 269.2C45.7 271.3 91.3 275.7 137 278.3C182.7 281 228.3 282 274 279.5C319.7 277 365.3 271 411.2 269.2C457 267.3 503 269.7 548.8 273.2C594.7 276.7 640.3 281.3 686 280.2C731.7 279 777.3 272 823 269.7C868.7 267.3 914.3 269.7 937.2 270.8L960 272L960 301L937.2 301C914.3 301 868.7 301 823 301C777.3 301 731.7 301 686 301C640.3 301 594.7 301 548.8 301C503 301 457 301 411.2 301C365.3 301 319.7 301 274 301C228.3 301 182.7 301 137 301C91.3 301 45.7 301 22.8 301L0 301Z" fill="#ad5479"></path></svg>